<svg preserveAspectRatio="none" width="100%" height="100%" overflow="visible" style="display: block;" viewBox="0 0 16 20" fill="none" xmlns="http://www.w3.org/2000/svg">
<g id="Group 340">
<path id="Vector" d="M8.00005 19C11.8429 19 15 16.0634 15 12.2942C15 11.3688 14.9512 10.3769 14.4193 8.83523C13.8874 7.29362 13.7803 7.09463 13.2178 6.14256C12.9775 8.08544 11.6919 8.89517 11.3652 9.13718C11.3652 8.8854 10.5875 6.10116 9.40827 4.43526C8.25065 2.80001 6.67629 1.72717 5.75317 1.00001C5.75317 2.3814 5.35025 4.43526 4.77321 5.48174C4.19617 6.52821 4.08781 6.56633 3.36704 7.3451C2.64632 8.12387 2.3155 8.36439 1.71279 9.3093C1.11012 10.2543 1 11.5128 1 12.4382C1 16.2074 4.15716 19 8.00005 19Z" fill="var(--fill-0, #00A63E)" stroke="var(--stroke-0, #00A63E)" stroke-width="2" stroke-linejoin="round"/>
<path id="Vector_2" d="M8.00002 17C9.64697 17 11 15.5317 11 13.6471C11 13.1844 10.9791 12.6884 10.7511 11.9176C10.5232 11.1468 10.4773 11.0473 10.2362 10.5713C10.1332 11.5427 9.58223 11.9476 9.44225 12.0686C9.44225 11.9427 9.10893 10.5506 8.60354 9.71764C8.10742 8.90001 7.4327 8.36359 7.03707 8.00001C7.03707 8.69071 6.86439 9.71764 6.61709 10.2409C6.36979 10.7641 6.32335 10.7832 6.01445 11.1726C5.70556 11.5619 5.56378 11.6822 5.30548 12.1547C5.04719 12.6271 5 13.2564 5 13.7191C5 15.6037 6.35307 17 8.00002 17Z" fill="var(--fill-0, white)" stroke="var(--stroke-0, #00A63E)" stroke-width="2" stroke-linejoin="round"/>
</g>
</svg>
