<svg width="32" height="32" viewBox="0 0 32 32" fill="none" xmlns="http://www.w3.org/2000/svg">
<path d="M7.99996 18.6667L9.99996 14.8C10.2174 14.3682 10.5481 14.0036 10.9568 13.7453C11.3654 13.4869 11.8366 13.3445 12.32 13.3333H26.6666M26.6666 13.3333C27.074 13.3326 27.4761 13.4253 27.8421 13.6041C28.2081 13.783 28.5283 14.0433 28.7781 14.3652C29.0278 14.687 29.2005 15.0618 29.2829 15.4607C29.3653 15.8597 29.3551 16.2722 29.2533 16.6667L27.2 24.6667C27.0514 25.2421 26.7149 25.7514 26.2439 26.1137C25.7728 26.4761 25.1942 26.6707 24.6 26.6667H5.33329C4.62605 26.6667 3.94777 26.3857 3.44767 25.8856C2.94758 25.3855 2.66663 24.7073 2.66663 24V6.66667C2.66663 5.95943 2.94758 5.28115 3.44767 4.78105C3.94777 4.28096 4.62605 4.00001 5.33329 4.00001H10.5333C10.9793 3.99563 11.4192 4.10319 11.8129 4.31283C12.2066 4.52248 12.5413 4.82751 12.7866 5.20001L13.8666 6.80001C14.1094 7.16871 14.44 7.47137 14.8286 7.68081C15.2173 7.89025 15.6518 7.99993 16.0933 8.00001H24C24.7072 8.00001 25.3855 8.28096 25.8856 8.78105C26.3857 9.28115 26.6666 9.95943 26.6666 10.6667V13.3333Z" stroke="#4A5565" stroke-width="2.66667" stroke-linecap="round" stroke-linejoin="round"/>
</svg>
